name C:\Users\u0101727\Documents\MyRepositories\predictivesimulations\OpenSimModel\subject1\GRF\gait_15_test.mot
datacolumns 19
datarows 20
range 2.71600000 2.73500000
endheader

                time	     ground_force_vx	     ground_force_vy	     ground_force_vz	     ground_force_px	     ground_force_py	     ground_force_pz	   1_ground_force_vx	   1_ground_force_vy	   1_ground_force_vz	   1_ground_force_px	   1_ground_force_py	   1_ground_force_pz	     ground_torque_x	     ground_torque_y	     ground_torque_z	   1_ground_torque_x	   1_ground_torque_y	   1_ground_torque_z	
          2.71600000	        -21.41669689	        176.63057122	        -22.10125186	          0.34881164	          0.00000000	          0.22212559	        127.88387499	        562.68372342	          3.07457625	         -0.17285596	          0.00000000	          0.30185650	          0.00000000	          0.03413768	          0.00000000	          0.00000000	          2.12566316	          0.00000000	
          2.71700000	        -22.70042447	        183.99504000	        -22.83917394	          0.34905825	          0.00000000	          0.22215440	        127.98627992	        558.42541775	          3.41603140	         -0.17270444	          0.00000000	          0.30181906	          0.00000000	          0.02677664	          0.00000000	          0.00000000	          2.09893993	          0.00000000	
          2.71800000	        -24.00812718	        191.36665622	        -23.56180205	          0.34930330	          0.00000000	          0.22217987	        128.05383935	        554.06185316	          3.76240440	         -0.17255285	          0.00000000	          0.30178145	          0.00000000	          0.01883657	          0.00000000	          0.00000000	          2.07217366	          0.00000000	
          2.71900000	        -25.33816070	        198.73369256	        -24.26704343	          0.34954733	          0.00000000	          0.22220209	        128.08540884	        549.59217038	          4.11329490	         -0.17240120	          0.00000000	          0.30174369	          0.00000000	          0.01030086	          0.00000000	          0.00000000	          2.04536569	          0.00000000	
          2.72000000	        -26.68880804	        206.08467624	        -24.95282815	          0.34979085	          0.00000000	          0.22222112	        128.07985455	        545.01562036	          4.46827590	         -0.17224945	          0.00000000	          0.30170577	          0.00000000	          0.00115254	          0.00000000	          0.00000000	          2.01851707	          0.00000000	
          2.72100000	        -28.05828629	        213.40845369	        -25.61711891	          0.35003434	          0.00000000	          0.22223701	        128.03605590	        540.33157276	          4.82689433	         -0.17209757	          0.00000000	          0.30166770	          0.00000000	         -0.00862567	          0.00000000	          0.00000000	          1.99162868	          0.00000000	
          2.72200000	        -29.44475411	        220.69424626	        -26.25792077	          0.35027824	          0.00000000	          0.22224981	        127.95290831	        535.53952432	          5.18867182	         -0.17194556	          0.00000000	          0.30162950	          0.00000000	         -0.01905130	          0.00000000	          0.00000000	          1.96470135	          0.00000000	
          2.72300000	        -30.84632009	        227.93169704	        -26.87329099	          0.35052299	          0.00000000	          0.22225955	        127.82932603	        530.63910698	          5.55310558	         -0.17179337	          0.00000000	          0.30159116	          0.00000000	         -0.03014202	          0.00000000	          0.00000000	          1.93773597	          0.00000000	
          2.72400000	        -32.26105179	        235.11090921	        -27.46134837	          0.35076899	          0.00000000	          0.22226629	        127.66424510	        525.63009558	          5.91966945	         -0.17164099	          0.00000000	          0.30155270	          0.00000000	         -0.04191542	          0.00000000	          0.00000000	          1.91073362	          0.00000000	
          2.72500000	        -33.68698568	        242.22247715	        -28.02028219	          0.35101664	          0.00000000	          0.22227006	        127.45662639	        520.51241497	          6.28781513	         -0.17148838	          0.00000000	          0.30151413	          0.00000000	         -0.05438888	          0.00000000	          0.00000000	          1.88369566	          0.00000000	
          2.72600000	        -35.12213755	        249.25751103	        -28.54836032	          0.35126631	          0.00000000	          0.22227090	        127.20545894	        515.28614674	          6.65697353	         -0.17133551	          0.00000000	          0.30147545	          0.00000000	         -0.06757932	          0.00000000	          0.00000000	          1.85662385	          0.00000000	
          2.72700000	        -36.56451367	        256.20765638	        -29.04393661	          0.35151836	          0.00000000	          0.22226885	        126.90976337	        509.95153524	          7.02655616	         -0.17118234	          0.00000000	          0.30143668	          0.00000000	         -0.08150299	          0.00000000	          0.00000000	          1.82952035	          0.00000000	
          2.72800000	        -38.01212227	        263.06510934	        -29.50545740	          0.35177314	          0.00000000	          0.22226396	        126.56859553	        504.50899306	          7.39595663	         -0.17102886	          0.00000000	          0.30139783	          0.00000000	         -0.09617523	          0.00000000	          0.00000000	          1.80238781	          0.00000000	
          2.72900000	        -39.46298553	        269.82262873	        -29.93146718	          0.35203100	          0.00000000	          0.22225627	        126.18105017	        498.95910592	          7.76455209	         -0.17087500	          0.00000000	          0.30135889	          0.00000000	         -0.11161026	          0.00000000	          0.00000000	          1.77522934	          0.00000000	
          2.73000000	        -40.91515177	        276.47354540	        -30.32061344	          0.35229226	          0.00000000	          0.22224583	        125.74626477	        493.30263701	          8.13170485	         -0.17072075	          0.00000000	          0.30131989	          0.00000000	         -0.12782094	          0.00000000	          0.00000000	          1.74804851	          0.00000000	
          2.73100000	        -42.36670789	        283.01176961	        -30.67165082	          0.35255723	          0.00000000	          0.22223269	        125.26342333	        487.54053078	          8.49676381	         -0.17056605	          0.00000000	          0.30128083	          0.00000000	         -0.14481860	          0.00000000	          0.00000000	          1.72084933	          0.00000000	
          2.73200000	        -43.81579178	        289.43179659	        -30.98344446	          0.35282622	          0.00000000	          0.22221692	        124.73176024	        481.67391625	          8.85906618	         -0.17041086	          0.00000000	          0.30124172	          0.00000000	         -0.16261281	          0.00000000	          0.00000000	          1.69363621	          0.00000000	
          2.73300000	        -45.26060478	        295.72871044	        -31.25497288	          0.35309955	          0.00000000	          0.22219857	        124.15056409	        475.70410977	          9.21793900	         -0.17025513	          0.00000000	          0.30120257	          0.00000000	         -0.18121126	          0.00000000	          0.00000000	          1.66641391	          0.00000000	
          2.73400000	        -46.69942387	        301.89818634	        -31.48533018	          0.35337749	          0.00000000	          0.22217770	        123.51918155	        469.63261735	          9.57270087	         -0.17009882	          0.00000000	          0.30116338	          0.00000000	         -0.20061957	          0.00000000	          0.00000000	          1.63918748	          0.00000000	
          2.73500000	        -48.13061344	        307.93649085	        -31.67372791	          0.35366033	          0.00000000	          0.22215439	        122.83702114	        463.46113660	          9.92266365	         -0.16994186	          0.00000000	          0.30112417	          0.00000000	         -0.22084118	          0.00000000	          0.00000000	          1.61196224	          0.00000000	
